<?xml version="1.0" ?><!DOCTYPE svg  PUBLIC '-//W3C//DTD SVG 1.1//EN'  'http://www.w3.org/Graphics/SVG/1.1/DTD/svg11.dtd'><svg enable-background="new 0 0 96 96" height="96px" id="Layer_1" version="1.1" viewBox="0 0 96 96" width="96px" xml:space="preserve" xmlns="http://www.w3.org/2000/svg" xmlns:xlink="http://www.w3.org/1999/xlink"><g><path d="M65.113,64.182l0.262,4.316   c0,2.209-1.791,4-4,4h-26.75c-2.209,0-4-1.791-4-4l2.002-32.996c0-2.209,1.791-4,4-4h22.746c2.209,0,4,1.791,4,4l1.441,23.744" fill="none" stroke="#000000" stroke-linecap="round" stroke-miterlimit="10" stroke-width="2"/><path d="M43.375,24.973   c1.307-0.926,2.902-1.471,4.625-1.471c4.418,0,8,3.582,8,8" fill="none" stroke="#000000" stroke-linecap="round" stroke-miterlimit="10" stroke-width="2"/><path d="M40,31.502   c0-1.488,0.406-2.881,1.115-4.074" fill="none" stroke="#000000" stroke-linecap="round" stroke-miterlimit="10" stroke-width="2"/><path d="M53.625,50.285   c0,1.744-4.891,6.076-5.189,6.301c-0.297,0.225-0.561,0.23-0.824,0.014s-5.236-4.422-5.236-6.314s1.363-3.045,3.041-3.045   c1.092,0,2.051,0.576,2.588,1.441c0.529-0.865,1.49-1.441,2.582-1.441C52.262,47.24,53.625,48.541,53.625,50.285z" fill="none" stroke="#000000" stroke-linecap="round" stroke-miterlimit="10" stroke-width="2"/></g></svg>